<mxfile host="Electron" agent="Mozilla/5.0 (Windows NT 10.0; Win64; x64) AppleWebKit/537.36 (KHTML, like Gecko) draw.io/24.7.17 Chrome/128.0.6613.36 Electron/32.0.1 Safari/537.36" version="24.7.17">
  <diagram name="Pagina-1" id="T_bFFv6Ll0AuDsALWfST">
    <mxGraphModel dx="1050" dy="629" grid="1" gridSize="10" guides="1" tooltips="1" connect="1" arrows="1" fold="1" page="1" pageScale="1" pageWidth="827" pageHeight="1169" math="0" shadow="0">
      <root>
        <mxCell id="0" />
        <mxCell id="1" parent="0" />
        <mxCell id="AhGt5AHtEjVrdrovUBam-14" value="Film (&lt;u&gt;Titolo&lt;/u&gt;, Anno, CasaProd, Codice(Artista)*)" style="shape=table;startSize=30;container=1;collapsible=1;childLayout=tableLayout;fixedRows=1;rowLines=0;fontStyle=1;align=center;resizeLast=1;html=1;" parent="1" vertex="1">
          <mxGeometry y="210" width="280" height="150" as="geometry" />
        </mxCell>
        <mxCell id="AhGt5AHtEjVrdrovUBam-15" value="" style="shape=tableRow;horizontal=0;startSize=0;swimlaneHead=0;swimlaneBody=0;fillColor=none;collapsible=0;dropTarget=0;points=[[0,0.5],[1,0.5]];portConstraint=eastwest;top=0;left=0;right=0;bottom=1;" parent="AhGt5AHtEjVrdrovUBam-14" vertex="1">
          <mxGeometry y="30" width="280" height="30" as="geometry" />
        </mxCell>
        <mxCell id="AhGt5AHtEjVrdrovUBam-16" value="Titolo" style="shape=partialRectangle;connectable=0;fillColor=none;top=0;left=0;bottom=0;right=0;fontStyle=1;overflow=hidden;whiteSpace=wrap;html=1;" parent="AhGt5AHtEjVrdrovUBam-15" vertex="1">
          <mxGeometry width="50" height="30" as="geometry">
            <mxRectangle width="50" height="30" as="alternateBounds" />
          </mxGeometry>
        </mxCell>
        <mxCell id="AhGt5AHtEjVrdrovUBam-17" value="&lt;span style=&quot;font-weight: 400;&quot;&gt;Anno&lt;span style=&quot;white-space: pre;&quot;&gt;&#x9;&lt;/span&gt;CasaProd&lt;span style=&quot;white-space: pre;&quot;&gt;&#x9;&lt;/span&gt;Codice&lt;/span&gt;" style="shape=partialRectangle;connectable=0;fillColor=none;top=0;left=0;bottom=0;right=0;align=left;spacingLeft=6;fontStyle=5;overflow=hidden;whiteSpace=wrap;html=1;" parent="AhGt5AHtEjVrdrovUBam-15" vertex="1">
          <mxGeometry x="50" width="230" height="30" as="geometry">
            <mxRectangle width="230" height="30" as="alternateBounds" />
          </mxGeometry>
        </mxCell>
        <mxCell id="AhGt5AHtEjVrdrovUBam-18" value="" style="shape=tableRow;horizontal=0;startSize=0;swimlaneHead=0;swimlaneBody=0;fillColor=none;collapsible=0;dropTarget=0;points=[[0,0.5],[1,0.5]];portConstraint=eastwest;top=0;left=0;right=0;bottom=0;" parent="AhGt5AHtEjVrdrovUBam-14" vertex="1">
          <mxGeometry y="60" width="280" height="30" as="geometry" />
        </mxCell>
        <mxCell id="AhGt5AHtEjVrdrovUBam-19" value="Shark" style="shape=partialRectangle;connectable=0;fillColor=none;top=0;left=0;bottom=0;right=0;editable=1;overflow=hidden;whiteSpace=wrap;html=1;" parent="AhGt5AHtEjVrdrovUBam-18" vertex="1">
          <mxGeometry width="50" height="30" as="geometry">
            <mxRectangle width="50" height="30" as="alternateBounds" />
          </mxGeometry>
        </mxCell>
        <mxCell id="AhGt5AHtEjVrdrovUBam-20" value="2018&lt;span style=&quot;white-space: pre;&quot;&gt;&#x9;&lt;/span&gt;Netflix&lt;span style=&quot;white-space: pre;&quot;&gt;&#x9;&lt;span style=&quot;white-space: pre;&quot;&gt;&#x9;&lt;/span&gt;&lt;/span&gt;14985" style="shape=partialRectangle;connectable=0;fillColor=none;top=0;left=0;bottom=0;right=0;align=left;spacingLeft=6;overflow=hidden;whiteSpace=wrap;html=1;" parent="AhGt5AHtEjVrdrovUBam-18" vertex="1">
          <mxGeometry x="50" width="230" height="30" as="geometry">
            <mxRectangle width="230" height="30" as="alternateBounds" />
          </mxGeometry>
        </mxCell>
        <mxCell id="AhGt5AHtEjVrdrovUBam-21" value="" style="shape=tableRow;horizontal=0;startSize=0;swimlaneHead=0;swimlaneBody=0;fillColor=none;collapsible=0;dropTarget=0;points=[[0,0.5],[1,0.5]];portConstraint=eastwest;top=0;left=0;right=0;bottom=0;" parent="AhGt5AHtEjVrdrovUBam-14" vertex="1">
          <mxGeometry y="90" width="280" height="30" as="geometry" />
        </mxCell>
        <mxCell id="AhGt5AHtEjVrdrovUBam-22" value="Shrek" style="shape=partialRectangle;connectable=0;fillColor=none;top=0;left=0;bottom=0;right=0;editable=1;overflow=hidden;whiteSpace=wrap;html=1;" parent="AhGt5AHtEjVrdrovUBam-21" vertex="1">
          <mxGeometry width="50" height="30" as="geometry">
            <mxRectangle width="50" height="30" as="alternateBounds" />
          </mxGeometry>
        </mxCell>
        <mxCell id="AhGt5AHtEjVrdrovUBam-23" value="2001&lt;span style=&quot;white-space: pre;&quot;&gt;&#x9;&lt;/span&gt;Universal&lt;span style=&quot;white-space: pre;&quot;&gt;&#x9;&lt;span style=&quot;white-space: pre;&quot;&gt;&#x9;&lt;/span&gt;&lt;/span&gt;78512" style="shape=partialRectangle;connectable=0;fillColor=none;top=0;left=0;bottom=0;right=0;align=left;spacingLeft=6;overflow=hidden;whiteSpace=wrap;html=1;" parent="AhGt5AHtEjVrdrovUBam-21" vertex="1">
          <mxGeometry x="50" width="230" height="30" as="geometry">
            <mxRectangle width="230" height="30" as="alternateBounds" />
          </mxGeometry>
        </mxCell>
        <mxCell id="AhGt5AHtEjVrdrovUBam-24" value="" style="shape=tableRow;horizontal=0;startSize=0;swimlaneHead=0;swimlaneBody=0;fillColor=none;collapsible=0;dropTarget=0;points=[[0,0.5],[1,0.5]];portConstraint=eastwest;top=0;left=0;right=0;bottom=0;" parent="AhGt5AHtEjVrdrovUBam-14" vertex="1">
          <mxGeometry y="120" width="280" height="30" as="geometry" />
        </mxCell>
        <mxCell id="AhGt5AHtEjVrdrovUBam-25" value="//" style="shape=partialRectangle;connectable=0;fillColor=none;top=0;left=0;bottom=0;right=0;editable=1;overflow=hidden;whiteSpace=wrap;html=1;" parent="AhGt5AHtEjVrdrovUBam-24" vertex="1">
          <mxGeometry width="50" height="30" as="geometry">
            <mxRectangle width="50" height="30" as="alternateBounds" />
          </mxGeometry>
        </mxCell>
        <mxCell id="AhGt5AHtEjVrdrovUBam-26" value="" style="shape=partialRectangle;connectable=0;fillColor=none;top=0;left=0;bottom=0;right=0;align=left;spacingLeft=6;overflow=hidden;whiteSpace=wrap;html=1;" parent="AhGt5AHtEjVrdrovUBam-24" vertex="1">
          <mxGeometry x="50" width="230" height="30" as="geometry">
            <mxRectangle width="230" height="30" as="alternateBounds" />
          </mxGeometry>
        </mxCell>
        <mxCell id="AhGt5AHtEjVrdrovUBam-27" value="Artista (&lt;u&gt;Codice&lt;/u&gt;, Nome, Cognome)" style="shape=table;startSize=30;container=1;collapsible=1;childLayout=tableLayout;fixedRows=1;rowLines=0;fontStyle=1;align=center;resizeLast=1;html=1;" parent="1" vertex="1">
          <mxGeometry x="520" y="210" width="260" height="150" as="geometry" />
        </mxCell>
        <mxCell id="AhGt5AHtEjVrdrovUBam-28" value="" style="shape=tableRow;horizontal=0;startSize=0;swimlaneHead=0;swimlaneBody=0;fillColor=none;collapsible=0;dropTarget=0;points=[[0,0.5],[1,0.5]];portConstraint=eastwest;top=0;left=0;right=0;bottom=1;" parent="AhGt5AHtEjVrdrovUBam-27" vertex="1">
          <mxGeometry y="30" width="260" height="30" as="geometry" />
        </mxCell>
        <mxCell id="AhGt5AHtEjVrdrovUBam-29" value="Codice" style="shape=partialRectangle;connectable=0;fillColor=none;top=0;left=0;bottom=0;right=0;fontStyle=1;overflow=hidden;whiteSpace=wrap;html=1;" parent="AhGt5AHtEjVrdrovUBam-28" vertex="1">
          <mxGeometry width="50" height="30" as="geometry">
            <mxRectangle width="50" height="30" as="alternateBounds" />
          </mxGeometry>
        </mxCell>
        <mxCell id="AhGt5AHtEjVrdrovUBam-30" value="&lt;span style=&quot;font-weight: normal;&quot;&gt;Nome&lt;span style=&quot;white-space: pre;&quot;&gt;&#x9;&lt;span style=&quot;white-space: pre;&quot;&gt;&#x9;&lt;/span&gt;&lt;/span&gt;Cognome&lt;/span&gt;" style="shape=partialRectangle;connectable=0;fillColor=none;top=0;left=0;bottom=0;right=0;align=left;spacingLeft=6;fontStyle=5;overflow=hidden;whiteSpace=wrap;html=1;" parent="AhGt5AHtEjVrdrovUBam-28" vertex="1">
          <mxGeometry x="50" width="210" height="30" as="geometry">
            <mxRectangle width="210" height="30" as="alternateBounds" />
          </mxGeometry>
        </mxCell>
        <mxCell id="AhGt5AHtEjVrdrovUBam-31" value="" style="shape=tableRow;horizontal=0;startSize=0;swimlaneHead=0;swimlaneBody=0;fillColor=none;collapsible=0;dropTarget=0;points=[[0,0.5],[1,0.5]];portConstraint=eastwest;top=0;left=0;right=0;bottom=0;" parent="AhGt5AHtEjVrdrovUBam-27" vertex="1">
          <mxGeometry y="60" width="260" height="30" as="geometry" />
        </mxCell>
        <mxCell id="AhGt5AHtEjVrdrovUBam-32" value="14985" style="shape=partialRectangle;connectable=0;fillColor=none;top=0;left=0;bottom=0;right=0;editable=1;overflow=hidden;whiteSpace=wrap;html=1;" parent="AhGt5AHtEjVrdrovUBam-31" vertex="1">
          <mxGeometry width="50" height="30" as="geometry">
            <mxRectangle width="50" height="30" as="alternateBounds" />
          </mxGeometry>
        </mxCell>
        <mxCell id="AhGt5AHtEjVrdrovUBam-33" value="Jon&lt;span style=&quot;white-space: pre;&quot;&gt;&#x9;&lt;/span&gt;&lt;span style=&quot;white-space: pre;&quot;&gt;&#x9;&lt;span style=&quot;white-space: pre;&quot;&gt;&#x9;&lt;/span&gt;&lt;/span&gt;Turteltaub" style="shape=partialRectangle;connectable=0;fillColor=none;top=0;left=0;bottom=0;right=0;align=left;spacingLeft=6;overflow=hidden;whiteSpace=wrap;html=1;" parent="AhGt5AHtEjVrdrovUBam-31" vertex="1">
          <mxGeometry x="50" width="210" height="30" as="geometry">
            <mxRectangle width="210" height="30" as="alternateBounds" />
          </mxGeometry>
        </mxCell>
        <mxCell id="AhGt5AHtEjVrdrovUBam-34" value="" style="shape=tableRow;horizontal=0;startSize=0;swimlaneHead=0;swimlaneBody=0;fillColor=none;collapsible=0;dropTarget=0;points=[[0,0.5],[1,0.5]];portConstraint=eastwest;top=0;left=0;right=0;bottom=0;" parent="AhGt5AHtEjVrdrovUBam-27" vertex="1">
          <mxGeometry y="90" width="260" height="30" as="geometry" />
        </mxCell>
        <mxCell id="AhGt5AHtEjVrdrovUBam-35" value="78512" style="shape=partialRectangle;connectable=0;fillColor=none;top=0;left=0;bottom=0;right=0;editable=1;overflow=hidden;whiteSpace=wrap;html=1;" parent="AhGt5AHtEjVrdrovUBam-34" vertex="1">
          <mxGeometry width="50" height="30" as="geometry">
            <mxRectangle width="50" height="30" as="alternateBounds" />
          </mxGeometry>
        </mxCell>
        <mxCell id="AhGt5AHtEjVrdrovUBam-36" value="Andrew&lt;span style=&quot;white-space: pre;&quot;&gt;&#x9;&lt;span style=&quot;white-space: pre;&quot;&gt;&#x9;&lt;/span&gt;&lt;/span&gt;Adamson" style="shape=partialRectangle;connectable=0;fillColor=none;top=0;left=0;bottom=0;right=0;align=left;spacingLeft=6;overflow=hidden;whiteSpace=wrap;html=1;" parent="AhGt5AHtEjVrdrovUBam-34" vertex="1">
          <mxGeometry x="50" width="210" height="30" as="geometry">
            <mxRectangle width="210" height="30" as="alternateBounds" />
          </mxGeometry>
        </mxCell>
        <mxCell id="AhGt5AHtEjVrdrovUBam-37" value="" style="shape=tableRow;horizontal=0;startSize=0;swimlaneHead=0;swimlaneBody=0;fillColor=none;collapsible=0;dropTarget=0;points=[[0,0.5],[1,0.5]];portConstraint=eastwest;top=0;left=0;right=0;bottom=0;" parent="AhGt5AHtEjVrdrovUBam-27" vertex="1">
          <mxGeometry y="120" width="260" height="30" as="geometry" />
        </mxCell>
        <mxCell id="AhGt5AHtEjVrdrovUBam-38" value="84521" style="shape=partialRectangle;connectable=0;fillColor=none;top=0;left=0;bottom=0;right=0;editable=1;overflow=hidden;whiteSpace=wrap;html=1;" parent="AhGt5AHtEjVrdrovUBam-37" vertex="1">
          <mxGeometry width="50" height="30" as="geometry">
            <mxRectangle width="50" height="30" as="alternateBounds" />
          </mxGeometry>
        </mxCell>
        <mxCell id="AhGt5AHtEjVrdrovUBam-39" value="Cristopher&lt;span style=&quot;white-space: pre;&quot;&gt;&#x9;&lt;/span&gt;Nolan" style="shape=partialRectangle;connectable=0;fillColor=none;top=0;left=0;bottom=0;right=0;align=left;spacingLeft=6;overflow=hidden;whiteSpace=wrap;html=1;" parent="AhGt5AHtEjVrdrovUBam-37" vertex="1">
          <mxGeometry x="50" width="210" height="30" as="geometry">
            <mxRectangle width="210" height="30" as="alternateBounds" />
          </mxGeometry>
        </mxCell>
        <mxCell id="AhGt5AHtEjVrdrovUBam-40" value="Cinema (&lt;u&gt;Nome&lt;/u&gt;, Tel, Orario, Indirizzo, Titolo(Film)*, Codice(Città)*)" style="shape=table;startSize=30;container=1;collapsible=1;childLayout=tableLayout;fixedRows=1;rowLines=0;fontStyle=1;align=center;resizeLast=1;html=1;" parent="1" vertex="1">
          <mxGeometry y="450" width="480" height="150" as="geometry" />
        </mxCell>
        <mxCell id="AhGt5AHtEjVrdrovUBam-41" value="" style="shape=tableRow;horizontal=0;startSize=0;swimlaneHead=0;swimlaneBody=0;fillColor=none;collapsible=0;dropTarget=0;points=[[0,0.5],[1,0.5]];portConstraint=eastwest;top=0;left=0;right=0;bottom=1;" parent="AhGt5AHtEjVrdrovUBam-40" vertex="1">
          <mxGeometry y="30" width="480" height="30" as="geometry" />
        </mxCell>
        <mxCell id="AhGt5AHtEjVrdrovUBam-42" value="Nome" style="shape=partialRectangle;connectable=0;fillColor=none;top=0;left=0;bottom=0;right=0;fontStyle=1;overflow=hidden;whiteSpace=wrap;html=1;" parent="AhGt5AHtEjVrdrovUBam-41" vertex="1">
          <mxGeometry width="80" height="30" as="geometry">
            <mxRectangle width="80" height="30" as="alternateBounds" />
          </mxGeometry>
        </mxCell>
        <mxCell id="AhGt5AHtEjVrdrovUBam-43" value="&lt;span style=&quot;font-weight: normal;&quot;&gt;Tel&lt;span style=&quot;white-space: pre;&quot;&gt;&#x9;&lt;/span&gt;&lt;span style=&quot;white-space: pre;&quot;&gt;&#x9;&lt;span style=&quot;white-space: pre;&quot;&gt;&#x9;&lt;/span&gt;&lt;/span&gt;&lt;span style=&quot;white-space: pre;&quot;&gt;Orario&lt;span style=&quot;white-space: pre;&quot;&gt;&#x9;&lt;/span&gt;Indirizzo&lt;span style=&quot;white-space: pre;&quot;&gt;&#x9;&lt;span style=&quot;white-space: pre;&quot;&gt;&#x9;&lt;span style=&quot;white-space: pre;&quot;&gt;&#x9;&lt;/span&gt;&lt;span style=&quot;white-space: pre;&quot;&gt;&#x9;&lt;/span&gt;T&lt;/span&gt;itolo&lt;span style=&quot;white-space: pre;&quot;&gt;&#x9;&lt;/span&gt;C&lt;/span&gt;odice&lt;/span&gt;&lt;/span&gt;" style="shape=partialRectangle;connectable=0;fillColor=none;top=0;left=0;bottom=0;right=0;align=left;spacingLeft=6;fontStyle=5;overflow=hidden;whiteSpace=wrap;html=1;" parent="AhGt5AHtEjVrdrovUBam-41" vertex="1">
          <mxGeometry x="80" width="400" height="30" as="geometry">
            <mxRectangle width="400" height="30" as="alternateBounds" />
          </mxGeometry>
        </mxCell>
        <mxCell id="AhGt5AHtEjVrdrovUBam-44" value="" style="shape=tableRow;horizontal=0;startSize=0;swimlaneHead=0;swimlaneBody=0;fillColor=none;collapsible=0;dropTarget=0;points=[[0,0.5],[1,0.5]];portConstraint=eastwest;top=0;left=0;right=0;bottom=0;" parent="AhGt5AHtEjVrdrovUBam-40" vertex="1">
          <mxGeometry y="60" width="480" height="30" as="geometry" />
        </mxCell>
        <mxCell id="AhGt5AHtEjVrdrovUBam-45" value="Uci" style="shape=partialRectangle;connectable=0;fillColor=none;top=0;left=0;bottom=0;right=0;editable=1;overflow=hidden;whiteSpace=wrap;html=1;" parent="AhGt5AHtEjVrdrovUBam-44" vertex="1">
          <mxGeometry width="80" height="30" as="geometry">
            <mxRectangle width="80" height="30" as="alternateBounds" />
          </mxGeometry>
        </mxCell>
        <mxCell id="AhGt5AHtEjVrdrovUBam-46" value="0238585259&lt;span style=&quot;white-space: pre;&quot;&gt;&#x9;&lt;/span&gt;14-23&lt;span style=&quot;white-space: pre;&quot;&gt;&#x9;&lt;/span&gt;Via San Salvatore&lt;span style=&quot;white-space: pre;&quot;&gt;&#x9;&lt;/span&gt;&lt;span style=&quot;white-space: pre;&quot;&gt;&#x9;&lt;/span&gt;Shrek&lt;span style=&quot;white-space: pre;&quot;&gt;&#x9;&lt;/span&gt;81100" style="shape=partialRectangle;connectable=0;fillColor=none;top=0;left=0;bottom=0;right=0;align=left;spacingLeft=6;overflow=hidden;whiteSpace=wrap;html=1;" parent="AhGt5AHtEjVrdrovUBam-44" vertex="1">
          <mxGeometry x="80" width="400" height="30" as="geometry">
            <mxRectangle width="400" height="30" as="alternateBounds" />
          </mxGeometry>
        </mxCell>
        <mxCell id="AhGt5AHtEjVrdrovUBam-47" value="" style="shape=tableRow;horizontal=0;startSize=0;swimlaneHead=0;swimlaneBody=0;fillColor=none;collapsible=0;dropTarget=0;points=[[0,0.5],[1,0.5]];portConstraint=eastwest;top=0;left=0;right=0;bottom=0;" parent="AhGt5AHtEjVrdrovUBam-40" vertex="1">
          <mxGeometry y="90" width="480" height="30" as="geometry" />
        </mxCell>
        <mxCell id="AhGt5AHtEjVrdrovUBam-48" value="Modernissimo" style="shape=partialRectangle;connectable=0;fillColor=none;top=0;left=0;bottom=0;right=0;editable=1;overflow=hidden;whiteSpace=wrap;html=1;" parent="AhGt5AHtEjVrdrovUBam-47" vertex="1">
          <mxGeometry width="80" height="30" as="geometry">
            <mxRectangle width="80" height="30" as="alternateBounds" />
          </mxGeometry>
        </mxCell>
        <mxCell id="AhGt5AHtEjVrdrovUBam-49" value="0815800254&lt;span style=&quot;white-space: pre;&quot;&gt;&#x9;&lt;/span&gt;11-24&lt;span style=&quot;white-space: pre;&quot;&gt;&#x9;&lt;/span&gt;Via Cisterna dell&#39;Olio&lt;span style=&quot;white-space: pre;&quot;&gt;&#x9;&lt;/span&gt;Shark&lt;span style=&quot;white-space: pre;&quot;&gt;&#x9;&lt;/span&gt;80134" style="shape=partialRectangle;connectable=0;fillColor=none;top=0;left=0;bottom=0;right=0;align=left;spacingLeft=6;overflow=hidden;whiteSpace=wrap;html=1;" parent="AhGt5AHtEjVrdrovUBam-47" vertex="1">
          <mxGeometry x="80" width="400" height="30" as="geometry">
            <mxRectangle width="400" height="30" as="alternateBounds" />
          </mxGeometry>
        </mxCell>
        <mxCell id="AhGt5AHtEjVrdrovUBam-50" value="" style="shape=tableRow;horizontal=0;startSize=0;swimlaneHead=0;swimlaneBody=0;fillColor=none;collapsible=0;dropTarget=0;points=[[0,0.5],[1,0.5]];portConstraint=eastwest;top=0;left=0;right=0;bottom=0;" parent="AhGt5AHtEjVrdrovUBam-40" vertex="1">
          <mxGeometry y="120" width="480" height="30" as="geometry" />
        </mxCell>
        <mxCell id="AhGt5AHtEjVrdrovUBam-51" value="Acacia" style="shape=partialRectangle;connectable=0;fillColor=none;top=0;left=0;bottom=0;right=0;editable=1;overflow=hidden;whiteSpace=wrap;html=1;" parent="AhGt5AHtEjVrdrovUBam-50" vertex="1">
          <mxGeometry width="80" height="30" as="geometry">
            <mxRectangle width="80" height="30" as="alternateBounds" />
          </mxGeometry>
        </mxCell>
        <mxCell id="AhGt5AHtEjVrdrovUBam-52" value="0812155639&lt;span style=&quot;white-space: pre;&quot;&gt;&#x9;&lt;/span&gt;9-21&lt;span style=&quot;white-space: pre;&quot;&gt;&#x9;&lt;/span&gt;&lt;span style=&quot;white-space: pre;&quot;&gt;&#x9;&lt;/span&gt;Via R. Tarantino&lt;span style=&quot;white-space: pre;&quot;&gt;&#x9;&lt;/span&gt;&lt;span style=&quot;white-space: pre;&quot;&gt;&#x9;&lt;/span&gt;//&lt;span style=&quot;white-space: pre;&quot;&gt;&#x9;&lt;/span&gt;&lt;span style=&quot;white-space: pre;&quot;&gt;&#x9;&lt;/span&gt;80128" style="shape=partialRectangle;connectable=0;fillColor=none;top=0;left=0;bottom=0;right=0;align=left;spacingLeft=6;overflow=hidden;whiteSpace=wrap;html=1;" parent="AhGt5AHtEjVrdrovUBam-50" vertex="1">
          <mxGeometry x="80" width="400" height="30" as="geometry">
            <mxRectangle width="400" height="30" as="alternateBounds" />
          </mxGeometry>
        </mxCell>
        <mxCell id="AhGt5AHtEjVrdrovUBam-66" value="C&#39;è bisogno di ricreare la tabella Film per la relazione cinema?" style="text;html=1;align=center;verticalAlign=middle;whiteSpace=wrap;rounded=0;" parent="1" vertex="1">
          <mxGeometry x="260" y="420" width="220" height="30" as="geometry" />
        </mxCell>
        <mxCell id="AhGt5AHtEjVrdrovUBam-67" value="Città (&lt;u&gt;Codice&lt;/u&gt;, Nome)" style="shape=table;startSize=30;container=1;collapsible=1;childLayout=tableLayout;fixedRows=1;rowLines=0;fontStyle=1;align=center;resizeLast=1;html=1;" parent="1" vertex="1">
          <mxGeometry x="580" y="450" width="200" height="150" as="geometry" />
        </mxCell>
        <mxCell id="AhGt5AHtEjVrdrovUBam-68" value="" style="shape=tableRow;horizontal=0;startSize=0;swimlaneHead=0;swimlaneBody=0;fillColor=none;collapsible=0;dropTarget=0;points=[[0,0.5],[1,0.5]];portConstraint=eastwest;top=0;left=0;right=0;bottom=1;" parent="AhGt5AHtEjVrdrovUBam-67" vertex="1">
          <mxGeometry y="30" width="200" height="30" as="geometry" />
        </mxCell>
        <mxCell id="AhGt5AHtEjVrdrovUBam-69" value="Codice" style="shape=partialRectangle;connectable=0;fillColor=none;top=0;left=0;bottom=0;right=0;fontStyle=1;overflow=hidden;whiteSpace=wrap;html=1;" parent="AhGt5AHtEjVrdrovUBam-68" vertex="1">
          <mxGeometry width="50" height="30" as="geometry">
            <mxRectangle width="50" height="30" as="alternateBounds" />
          </mxGeometry>
        </mxCell>
        <mxCell id="AhGt5AHtEjVrdrovUBam-70" value="&lt;span style=&quot;font-weight: normal;&quot;&gt;Nome&lt;/span&gt;" style="shape=partialRectangle;connectable=0;fillColor=none;top=0;left=0;bottom=0;right=0;align=left;spacingLeft=6;fontStyle=5;overflow=hidden;whiteSpace=wrap;html=1;" parent="AhGt5AHtEjVrdrovUBam-68" vertex="1">
          <mxGeometry x="50" width="150" height="30" as="geometry">
            <mxRectangle width="150" height="30" as="alternateBounds" />
          </mxGeometry>
        </mxCell>
        <mxCell id="AhGt5AHtEjVrdrovUBam-71" value="" style="shape=tableRow;horizontal=0;startSize=0;swimlaneHead=0;swimlaneBody=0;fillColor=none;collapsible=0;dropTarget=0;points=[[0,0.5],[1,0.5]];portConstraint=eastwest;top=0;left=0;right=0;bottom=0;" parent="AhGt5AHtEjVrdrovUBam-67" vertex="1">
          <mxGeometry y="60" width="200" height="30" as="geometry" />
        </mxCell>
        <mxCell id="AhGt5AHtEjVrdrovUBam-72" value="81100" style="shape=partialRectangle;connectable=0;fillColor=none;top=0;left=0;bottom=0;right=0;editable=1;overflow=hidden;whiteSpace=wrap;html=1;" parent="AhGt5AHtEjVrdrovUBam-71" vertex="1">
          <mxGeometry width="50" height="30" as="geometry">
            <mxRectangle width="50" height="30" as="alternateBounds" />
          </mxGeometry>
        </mxCell>
        <mxCell id="AhGt5AHtEjVrdrovUBam-73" value="Caserta" style="shape=partialRectangle;connectable=0;fillColor=none;top=0;left=0;bottom=0;right=0;align=left;spacingLeft=6;overflow=hidden;whiteSpace=wrap;html=1;" parent="AhGt5AHtEjVrdrovUBam-71" vertex="1">
          <mxGeometry x="50" width="150" height="30" as="geometry">
            <mxRectangle width="150" height="30" as="alternateBounds" />
          </mxGeometry>
        </mxCell>
        <mxCell id="AhGt5AHtEjVrdrovUBam-74" value="" style="shape=tableRow;horizontal=0;startSize=0;swimlaneHead=0;swimlaneBody=0;fillColor=none;collapsible=0;dropTarget=0;points=[[0,0.5],[1,0.5]];portConstraint=eastwest;top=0;left=0;right=0;bottom=0;" parent="AhGt5AHtEjVrdrovUBam-67" vertex="1">
          <mxGeometry y="90" width="200" height="30" as="geometry" />
        </mxCell>
        <mxCell id="AhGt5AHtEjVrdrovUBam-75" value="80134" style="shape=partialRectangle;connectable=0;fillColor=none;top=0;left=0;bottom=0;right=0;editable=1;overflow=hidden;whiteSpace=wrap;html=1;" parent="AhGt5AHtEjVrdrovUBam-74" vertex="1">
          <mxGeometry width="50" height="30" as="geometry">
            <mxRectangle width="50" height="30" as="alternateBounds" />
          </mxGeometry>
        </mxCell>
        <mxCell id="AhGt5AHtEjVrdrovUBam-76" value="Napoli" style="shape=partialRectangle;connectable=0;fillColor=none;top=0;left=0;bottom=0;right=0;align=left;spacingLeft=6;overflow=hidden;whiteSpace=wrap;html=1;" parent="AhGt5AHtEjVrdrovUBam-74" vertex="1">
          <mxGeometry x="50" width="150" height="30" as="geometry">
            <mxRectangle width="150" height="30" as="alternateBounds" />
          </mxGeometry>
        </mxCell>
        <mxCell id="AhGt5AHtEjVrdrovUBam-77" value="" style="shape=tableRow;horizontal=0;startSize=0;swimlaneHead=0;swimlaneBody=0;fillColor=none;collapsible=0;dropTarget=0;points=[[0,0.5],[1,0.5]];portConstraint=eastwest;top=0;left=0;right=0;bottom=0;" parent="AhGt5AHtEjVrdrovUBam-67" vertex="1">
          <mxGeometry y="120" width="200" height="30" as="geometry" />
        </mxCell>
        <mxCell id="AhGt5AHtEjVrdrovUBam-78" value="80128" style="shape=partialRectangle;connectable=0;fillColor=none;top=0;left=0;bottom=0;right=0;editable=1;overflow=hidden;whiteSpace=wrap;html=1;" parent="AhGt5AHtEjVrdrovUBam-77" vertex="1">
          <mxGeometry width="50" height="30" as="geometry">
            <mxRectangle width="50" height="30" as="alternateBounds" />
          </mxGeometry>
        </mxCell>
        <mxCell id="AhGt5AHtEjVrdrovUBam-79" value="Napoli" style="shape=partialRectangle;connectable=0;fillColor=none;top=0;left=0;bottom=0;right=0;align=left;spacingLeft=6;overflow=hidden;whiteSpace=wrap;html=1;" parent="AhGt5AHtEjVrdrovUBam-77" vertex="1">
          <mxGeometry x="50" width="150" height="30" as="geometry">
            <mxRectangle width="150" height="30" as="alternateBounds" />
          </mxGeometry>
        </mxCell>
        <mxCell id="AhGt5AHtEjVrdrovUBam-80" value="Problemi con la creazione della tabella&lt;div&gt;Come si inserisce una nuova colonna?&lt;/div&gt;&lt;div&gt;Come si disattiva la sottolineatura alla prima riga?&lt;/div&gt;" style="text;html=1;align=center;verticalAlign=middle;whiteSpace=wrap;rounded=0;" parent="1" vertex="1">
          <mxGeometry x="690" y="60" width="270" height="65" as="geometry" />
        </mxCell>
        <mxCell id="AhGt5AHtEjVrdrovUBam-81" value="[Un regista non ha per forza un film che ha diretto]" style="text;html=1;align=center;verticalAlign=middle;whiteSpace=wrap;rounded=0;" parent="1" vertex="1">
          <mxGeometry x="370" y="330" width="150" height="30" as="geometry" />
        </mxCell>
        <mxCell id="ojLHQxHCm1Vt9ggN1nRJ-1" value="Interpretazione (&lt;u&gt;Film&lt;/u&gt;, &lt;u&gt;Artista&lt;/u&gt;)" style="shape=table;startSize=30;container=1;collapsible=1;childLayout=tableLayout;fixedRows=1;rowLines=0;fontStyle=1;align=center;resizeLast=1;html=1;" parent="1" vertex="1">
          <mxGeometry x="285" y="50" width="220" height="150" as="geometry" />
        </mxCell>
        <mxCell id="ojLHQxHCm1Vt9ggN1nRJ-2" value="" style="shape=tableRow;horizontal=0;startSize=0;swimlaneHead=0;swimlaneBody=0;fillColor=none;collapsible=0;dropTarget=0;points=[[0,0.5],[1,0.5]];portConstraint=eastwest;top=0;left=0;right=0;bottom=1;" parent="ojLHQxHCm1Vt9ggN1nRJ-1" vertex="1">
          <mxGeometry y="30" width="220" height="30" as="geometry" />
        </mxCell>
        <mxCell id="ojLHQxHCm1Vt9ggN1nRJ-3" value="&lt;u&gt;Film&lt;/u&gt;" style="shape=partialRectangle;connectable=0;fillColor=none;top=0;left=0;bottom=0;right=0;fontStyle=1;overflow=hidden;whiteSpace=wrap;html=1;" parent="ojLHQxHCm1Vt9ggN1nRJ-2" vertex="1">
          <mxGeometry width="50" height="30" as="geometry">
            <mxRectangle width="50" height="30" as="alternateBounds" />
          </mxGeometry>
        </mxCell>
        <mxCell id="ojLHQxHCm1Vt9ggN1nRJ-4" value="Artista" style="shape=partialRectangle;connectable=0;fillColor=none;top=0;left=0;bottom=0;right=0;align=left;spacingLeft=6;fontStyle=5;overflow=hidden;whiteSpace=wrap;html=1;" parent="ojLHQxHCm1Vt9ggN1nRJ-2" vertex="1">
          <mxGeometry x="50" width="170" height="30" as="geometry">
            <mxRectangle width="170" height="30" as="alternateBounds" />
          </mxGeometry>
        </mxCell>
        <mxCell id="ojLHQxHCm1Vt9ggN1nRJ-5" value="" style="shape=tableRow;horizontal=0;startSize=0;swimlaneHead=0;swimlaneBody=0;fillColor=none;collapsible=0;dropTarget=0;points=[[0,0.5],[1,0.5]];portConstraint=eastwest;top=0;left=0;right=0;bottom=0;" parent="ojLHQxHCm1Vt9ggN1nRJ-1" vertex="1">
          <mxGeometry y="60" width="220" height="30" as="geometry" />
        </mxCell>
        <mxCell id="ojLHQxHCm1Vt9ggN1nRJ-6" value="Shark" style="shape=partialRectangle;connectable=0;fillColor=none;top=0;left=0;bottom=0;right=0;editable=1;overflow=hidden;whiteSpace=wrap;html=1;" parent="ojLHQxHCm1Vt9ggN1nRJ-5" vertex="1">
          <mxGeometry width="50" height="30" as="geometry">
            <mxRectangle width="50" height="30" as="alternateBounds" />
          </mxGeometry>
        </mxCell>
        <mxCell id="ojLHQxHCm1Vt9ggN1nRJ-7" value="14985" style="shape=partialRectangle;connectable=0;fillColor=none;top=0;left=0;bottom=0;right=0;align=left;spacingLeft=6;overflow=hidden;whiteSpace=wrap;html=1;" parent="ojLHQxHCm1Vt9ggN1nRJ-5" vertex="1">
          <mxGeometry x="50" width="170" height="30" as="geometry">
            <mxRectangle width="170" height="30" as="alternateBounds" />
          </mxGeometry>
        </mxCell>
        <mxCell id="ojLHQxHCm1Vt9ggN1nRJ-8" value="" style="shape=tableRow;horizontal=0;startSize=0;swimlaneHead=0;swimlaneBody=0;fillColor=none;collapsible=0;dropTarget=0;points=[[0,0.5],[1,0.5]];portConstraint=eastwest;top=0;left=0;right=0;bottom=0;" parent="ojLHQxHCm1Vt9ggN1nRJ-1" vertex="1">
          <mxGeometry y="90" width="220" height="30" as="geometry" />
        </mxCell>
        <mxCell id="ojLHQxHCm1Vt9ggN1nRJ-9" value="Shrek" style="shape=partialRectangle;connectable=0;fillColor=none;top=0;left=0;bottom=0;right=0;editable=1;overflow=hidden;whiteSpace=wrap;html=1;" parent="ojLHQxHCm1Vt9ggN1nRJ-8" vertex="1">
          <mxGeometry width="50" height="30" as="geometry">
            <mxRectangle width="50" height="30" as="alternateBounds" />
          </mxGeometry>
        </mxCell>
        <mxCell id="ojLHQxHCm1Vt9ggN1nRJ-10" value="78512" style="shape=partialRectangle;connectable=0;fillColor=none;top=0;left=0;bottom=0;right=0;align=left;spacingLeft=6;overflow=hidden;whiteSpace=wrap;html=1;" parent="ojLHQxHCm1Vt9ggN1nRJ-8" vertex="1">
          <mxGeometry x="50" width="170" height="30" as="geometry">
            <mxRectangle width="170" height="30" as="alternateBounds" />
          </mxGeometry>
        </mxCell>
        <mxCell id="ojLHQxHCm1Vt9ggN1nRJ-11" value="" style="shape=tableRow;horizontal=0;startSize=0;swimlaneHead=0;swimlaneBody=0;fillColor=none;collapsible=0;dropTarget=0;points=[[0,0.5],[1,0.5]];portConstraint=eastwest;top=0;left=0;right=0;bottom=0;" parent="ojLHQxHCm1Vt9ggN1nRJ-1" vertex="1">
          <mxGeometry y="120" width="220" height="30" as="geometry" />
        </mxCell>
        <mxCell id="ojLHQxHCm1Vt9ggN1nRJ-12" value="//" style="shape=partialRectangle;connectable=0;fillColor=none;top=0;left=0;bottom=0;right=0;editable=1;overflow=hidden;whiteSpace=wrap;html=1;" parent="ojLHQxHCm1Vt9ggN1nRJ-11" vertex="1">
          <mxGeometry width="50" height="30" as="geometry">
            <mxRectangle width="50" height="30" as="alternateBounds" />
          </mxGeometry>
        </mxCell>
        <mxCell id="ojLHQxHCm1Vt9ggN1nRJ-13" value="" style="shape=partialRectangle;connectable=0;fillColor=none;top=0;left=0;bottom=0;right=0;align=left;spacingLeft=6;overflow=hidden;whiteSpace=wrap;html=1;" parent="ojLHQxHCm1Vt9ggN1nRJ-11" vertex="1">
          <mxGeometry x="50" width="170" height="30" as="geometry">
            <mxRectangle width="170" height="30" as="alternateBounds" />
          </mxGeometry>
        </mxCell>
        <mxCell id="ojLHQxHCm1Vt9ggN1nRJ-14" value="Per le relazioni N a N si inseriscono le chiavi delle due entità, che diventeranno la chiave di interpretazione. La coppia film-artista posso averla una sola volta, non si deve mai ripetere" style="text;html=1;align=center;verticalAlign=middle;whiteSpace=wrap;rounded=0;" parent="1" vertex="1">
          <mxGeometry x="240" width="330" height="50" as="geometry" />
        </mxCell>
        <mxCell id="ojLHQxHCm1Vt9ggN1nRJ-16" value="FK = Chiave esterna&lt;div&gt;PK = Chiave interna&lt;/div&gt;" style="text;html=1;align=center;verticalAlign=middle;whiteSpace=wrap;rounded=0;" parent="1" vertex="1">
          <mxGeometry x="750" y="150" width="135" height="30" as="geometry" />
        </mxCell>
      </root>
    </mxGraphModel>
  </diagram>
</mxfile>
